<?xml version="1.0" encoding="UTF-8"?>
<svg xmlns="http://www.w3.org/2000/svg" xmlns:xlink="http://www.w3.org/1999/xlink" width="300" height="120" viewBox="0 0 300 120">
<rect x="-30" y="-12" width="360" height="144" fill="rgb(100%, 100%, 100%)" fill-opacity="1"/>
<path fill="none" stroke-width="0.5" stroke-linecap="butt" stroke-linejoin="miter" stroke="rgb(53.333333%, 53.333333%, 53.333333%)" stroke-opacity="1" stroke-miterlimit="10" d="M 237.347656 69.503906 L 153.574219 52.921875 "/>
<path fill="none" stroke-width="0.5" stroke-linecap="butt" stroke-linejoin="miter" stroke="rgb(53.333333%, 53.333333%, 53.333333%)" stroke-opacity="1" stroke-miterlimit="10" d="M 130.898438 1.574219 L 203.011719 84.949219 "/>
<path fill="none" stroke-width="0.5" stroke-linecap="butt" stroke-linejoin="miter" stroke="rgb(53.333333%, 53.333333%, 53.333333%)" stroke-opacity="1" stroke-miterlimit="10" d="M 46.238281 100.34375 L 259.367188 114.746094 "/>
<path fill="none" stroke-width="0.5" stroke-linecap="butt" stroke-linejoin="miter" stroke="rgb(53.333333%, 53.333333%, 53.333333%)" stroke-opacity="1" stroke-miterlimit="10" d="M 141.984375 75.738281 L 275.542969 29.636719 "/>
<path fill-rule="nonzero" fill="rgb(53.333333%, 53.333333%, 53.333333%)" fill-opacity="1" d="M 194.433594 49.355469 C 194.433594 50.191406 193.179688 50.191406 193.179688 49.355469 C 193.179688 48.523438 194.433594 48.523438 194.433594 49.355469 "/>
<path fill-rule="nonzero" fill="rgb(53.333333%, 53.333333%, 53.333333%)" fill-opacity="1" d="M 26.808594 36.023438 C 26.808594 37.351562 24.8125 37.351562 24.8125 36.023438 C 24.8125 34.691406 26.808594 34.691406 26.808594 36.023438 "/>
<path fill-rule="nonzero" fill="rgb(53.333333%, 53.333333%, 53.333333%)" fill-opacity="1" d="M 263.160156 118.550781 C 263.160156 120.296875 260.539062 120.296875 260.539062 118.550781 C 260.539062 116.804688 263.160156 116.804688 263.160156 118.550781 "/>
<path fill-rule="nonzero" fill="rgb(53.333333%, 53.333333%, 53.333333%)" fill-opacity="1" d="M 4.917969 26.855469 C 4.917969 28.238281 2.839844 28.238281 2.839844 26.855469 C 2.839844 25.46875 4.917969 25.46875 4.917969 26.855469 "/>
<path fill-rule="nonzero" fill="rgb(53.333333%, 53.333333%, 53.333333%)" fill-opacity="1" d="M 291.949219 100.890625 C 291.949219 101.96875 290.332031 101.96875 290.332031 100.890625 C 290.332031 99.816406 291.949219 99.816406 291.949219 100.890625 "/>
<path fill-rule="nonzero" fill="rgb(53.333333%, 53.333333%, 53.333333%)" fill-opacity="1" d="M 224.871094 16.21875 C 224.871094 17.011719 223.683594 17.011719 223.683594 16.21875 C 223.683594 15.425781 224.871094 15.425781 224.871094 16.21875 "/>
<path fill-rule="nonzero" fill="rgb(53.333333%, 53.333333%, 53.333333%)" fill-opacity="1" d="M 117.304688 115.503906 C 117.304688 116.882812 115.234375 116.882812 115.234375 115.503906 C 115.234375 114.125 117.304688 114.125 117.304688 115.503906 "/>
<path fill-rule="nonzero" fill="rgb(53.333333%, 53.333333%, 53.333333%)" fill-opacity="1" d="M 209.09375 95.152344 C 209.09375 95.609375 208.40625 95.609375 208.40625 95.152344 C 208.40625 94.691406 209.09375 94.691406 209.09375 95.152344 "/>
<path fill-rule="nonzero" fill="rgb(53.333333%, 53.333333%, 53.333333%)" fill-opacity="1" d="M 127.160156 91.855469 C 127.160156 93.429688 124.804688 93.429688 124.804688 91.855469 C 124.804688 90.285156 127.160156 90.285156 127.160156 91.855469 "/>
<path fill-rule="nonzero" fill="rgb(53.333333%, 53.333333%, 53.333333%)" fill-opacity="1" d="M 22.777344 0.953125 C 22.777344 1.617188 21.777344 1.617188 21.777344 0.953125 C 21.777344 0.285156 22.777344 0.285156 22.777344 0.953125 "/>
<path fill-rule="nonzero" fill="rgb(53.333333%, 53.333333%, 53.333333%)" fill-opacity="1" d="M 220.425781 101.339844 C 220.425781 101.503906 220.175781 101.503906 220.175781 101.339844 C 220.175781 101.175781 220.425781 101.175781 220.425781 101.339844 "/>
<path fill-rule="nonzero" fill="rgb(53.333333%, 53.333333%, 53.333333%)" fill-opacity="1" d="M 157.683594 13.890625 C 157.683594 14.257812 157.132812 14.257812 157.132812 13.890625 C 157.132812 13.523438 157.683594 13.523438 157.683594 13.890625 "/>
<path fill-rule="nonzero" fill="rgb(53.333333%, 53.333333%, 53.333333%)" fill-opacity="1" d="M 50.945312 63.96875 C 50.945312 65.699219 48.347656 65.699219 48.347656 63.96875 C 48.347656 62.238281 50.945312 62.238281 50.945312 63.96875 "/>
<path fill-rule="nonzero" fill="rgb(53.333333%, 53.333333%, 53.333333%)" fill-opacity="1" d="M 48.121094 23.71875 C 48.121094 25.433594 45.542969 25.433594 45.542969 23.71875 C 45.542969 22 48.121094 22 48.121094 23.71875 "/>
<path fill-rule="nonzero" fill="rgb(53.333333%, 53.333333%, 53.333333%)" fill-opacity="1" d="M 56.4375 107.402344 C 56.4375 109.34375 53.53125 109.34375 53.53125 107.402344 C 53.53125 105.464844 56.4375 105.464844 56.4375 107.402344 "/>
<path fill-rule="nonzero" fill="rgb(53.333333%, 53.333333%, 53.333333%)" fill-opacity="1" d="M 54.265625 115.242188 C 54.265625 115.660156 53.640625 115.660156 53.640625 115.242188 C 53.640625 114.824219 54.265625 114.824219 54.265625 115.242188 "/>
<path fill-rule="nonzero" fill="rgb(53.333333%, 53.333333%, 53.333333%)" fill-opacity="1" d="M 79.859375 67.757812 C 79.859375 68.300781 79.039062 68.300781 79.039062 67.757812 C 79.039062 67.214844 79.859375 67.214844 79.859375 67.757812 "/>
<path fill-rule="nonzero" fill="rgb(53.333333%, 53.333333%, 53.333333%)" fill-opacity="1" d="M 110.871094 89.683594 C 110.871094 90.941406 108.980469 90.941406 108.980469 89.683594 C 108.980469 88.421875 110.871094 88.421875 110.871094 89.683594 "/>
<path fill-rule="nonzero" fill="rgb(53.333333%, 53.333333%, 53.333333%)" fill-opacity="1" d="M 31.222656 62.253906 C 31.222656 64.222656 28.273438 64.222656 28.273438 62.253906 C 28.273438 60.285156 31.222656 60.285156 31.222656 62.253906 "/>
<path fill-rule="nonzero" fill="rgb(53.333333%, 53.333333%, 53.333333%)" fill-opacity="1" d="M 112.378906 98.1875 C 112.378906 98.8125 111.4375 98.8125 111.4375 98.1875 C 111.4375 97.558594 112.378906 97.558594 112.378906 98.1875 "/>
<path fill-rule="nonzero" fill="rgb(0%, 0%, 0%)" fill-opacity="1" d="M 38.535156 63.742188 L 42.125 63.644531 C 42.207031 65.082031 42.527344 66.28125 43.089844 67.234375 C 43.652344 68.1875 44.566406 68.984375 45.832031 69.628906 C 47.097656 70.273438 48.542969 70.644531 50.167969 70.742188 C 51.613281 70.828125 52.898438 70.691406 54.027344 70.328125 C 55.160156 69.964844 56.015625 69.425781 56.601562 68.710938 C 57.1875 67.996094 57.503906 67.195312 57.558594 66.3125 C 57.613281 65.417969 57.398438 64.617188 56.917969 63.917969 C 56.4375 63.214844 55.613281 62.601562 54.445312 62.074219 C 53.699219 61.730469 52.03125 61.164062 49.441406 60.375 C 46.855469 59.589844 45.050781 58.882812 44.03125 58.261719 C 42.710938 57.464844 41.746094 56.515625 41.140625 55.414062 C 40.535156 54.316406 40.273438 53.109375 40.351562 51.796875 C 40.4375 50.355469 40.929688 49.03125 41.820312 47.824219 C 42.714844 46.621094 43.96875 45.742188 45.582031 45.183594 C 47.191406 44.628906 48.960938 44.410156 50.882812 44.527344 C 53.003906 44.652344 54.851562 45.105469 56.425781 45.886719 C 58.003906 46.664062 59.1875 47.746094 59.980469 49.121094 C 60.769531 50.5 61.148438 52.03125 61.113281 53.710938 L 57.46875 53.765625 C 57.382812 51.949219 56.804688 50.542969 55.738281 49.550781 C 54.667969 48.5625 53.035156 48 50.839844 47.867188 C 48.550781 47.730469 46.859375 48.050781 45.761719 48.824219 C 44.667969 49.601562 44.082031 50.582031 44.011719 51.761719 C 43.949219 52.789062 44.269531 53.65625 44.96875 54.363281 C 45.660156 55.070312 47.519531 55.863281 50.550781 56.746094 C 53.582031 57.625 55.65625 58.359375 56.765625 58.949219 C 58.386719 59.816406 59.554688 60.859375 60.277344 62.082031 C 61 63.308594 61.3125 64.6875 61.222656 66.21875 C 61.128906 67.742188 60.609375 69.148438 59.65625 70.441406 C 58.707031 71.734375 57.390625 72.703125 55.714844 73.355469 C 54.039062 74.003906 52.179688 74.265625 50.140625 74.144531 C 47.554688 73.988281 45.410156 73.480469 43.707031 72.621094 C 42.003906 71.761719 40.699219 70.546875 39.796875 68.972656 C 38.894531 67.398438 38.472656 65.65625 38.535156 63.742188 Z M 38.363281 36.671875 "/>
<path fill-rule="nonzero" fill="rgb(0%, 0%, 0%)" fill-opacity="1" d="M 147.652344 72.175781 L 137.847656 43.074219 L 141.945312 43.257812 L 148.453125 64.371094 C 148.976562 66.0625 149.40625 67.644531 149.746094 69.121094 C 150.257812 67.578125 150.839844 66.042969 151.496094 64.507812 L 160.152344 44.070312 L 164.015625 44.246094 L 151.535156 72.347656 Z M 138.011719 35.496094 "/>
<path fill-rule="nonzero" fill="rgb(0%, 0%, 0%)" fill-opacity="1" d="M 250.660156 61.179688 L 250.433594 57.828125 L 262.53125 56.984375 L 263.257812 67.585938 C 261.5 69.191406 259.660156 70.4375 257.734375 71.320312 C 255.8125 72.199219 253.8125 72.710938 251.734375 72.855469 C 248.925781 73.046875 246.335938 72.617188 243.960938 71.574219 C 241.585938 70.527344 239.738281 68.910156 238.414062 66.714844 C 237.089844 64.523438 236.332031 62.023438 236.140625 59.214844 C 235.949219 56.4375 236.355469 53.800781 237.351562 51.3125 C 238.351562 48.824219 239.902344 46.917969 242.003906 45.601562 C 244.105469 44.285156 246.578125 43.527344 249.425781 43.332031 C 251.488281 43.191406 253.378906 43.398438 255.09375 43.953125 C 256.808594 44.507812 258.183594 45.351562 259.210938 46.484375 C 260.242188 47.613281 261.070312 49.121094 261.695312 51.011719 L 258.347656 52.179688 C 257.820312 50.753906 257.210938 49.648438 256.515625 48.859375 C 255.824219 48.070312 254.867188 47.46875 253.652344 47.046875 C 252.4375 46.628906 251.105469 46.46875 249.664062 46.566406 C 247.9375 46.683594 246.460938 47.050781 245.238281 47.660156 C 244.011719 48.273438 243.042969 49.035156 242.328125 49.945312 C 241.613281 50.855469 241.078125 51.839844 240.71875 52.894531 C 240.113281 54.710938 239.878906 56.652344 240.019531 58.714844 C 240.195312 61.261719 240.777344 63.363281 241.773438 65.019531 C 242.765625 66.671875 244.128906 67.859375 245.863281 68.574219 C 247.59375 69.292969 249.402344 69.585938 251.285156 69.457031 C 252.921875 69.347656 254.5 68.921875 256.015625 68.1875 C 257.53125 67.449219 258.667969 66.695312 259.421875 65.925781 L 259.058594 60.609375 Z M 232.515625 37.382812 "/>
</svg>
